# xmcd
#
# Track frame offsets:
#	150
#	20475
#	40412
#	59356
#	80459
#	97401
#	118549
#	138788
#	156400
#
# Disc length: 2326 seconds
#
# Revision: 9
# Processed by: cddbd v1.5.2PL0 Copyright (c) Steve Scherf et al.
# Submitted via: Jack! The Knife 20 Magnifico
#
DISCID=78091409
DTITLE=Death - Human
DYEAR=1991
DGENRE=Metal
TTITLE0=Flattening Of Emotions
TTITLE1=Suicide Machine
TTITLE2=Together As One
TTITLE3=Secret Face
TTITLE4=Lack Of Comprehension
TTITLE5=See Through Dreams
TTITLE6=Cosmic Sea
TTITLE7=Vacant Planets
TTITLE8=God Of Thunder
EXTD=Scott Burns and Chuck Schuldiner
EXTT0=Chuck Schuldiner
EXTT1=Chuck Schuldiner
EXTT2=Chuck Schuldiner
EXTT3=Chuck Schuldiner
EXTT4=Chuck Schuldiner
EXTT5=Chuck Schuldiner
EXTT6=Chuck Schuldiner
EXTT7=Chuck Schuldiner
EXTT8=Paul Stanley
PLAYORDER=
